{"accessors" : [{"bufferView" : 0, "byteOffset" : 0, "componentType" : 5123, "count" : 84, "type" : "SCALAR", "max" : [83], "min" : [0]}, {"bufferView" : 1, "byteOffset" : 0, "componentType" : 5126, "count" : 84, "type" : "VEC3", "max" : [1, 1, 1.0226526260375977], "min" : [-1, -1, 0], "name" : "POSITION"}, {"bufferView" : 1, "byteOffset" : 12, "componentType" : 5126, "count" : 84, "type" : "VEC3", "max" : [1.0000044107437134, 1.9991157174104046E-08, 1.0000044107437134], "min" : [0, -9.241992948716415E-09, 0], "name" : "NORMAL"}, {"bufferView" : 0, "byteOffset" : 168, "componentType" : 5123, "count" : 84, "type" : "SCALAR", "max" : [83], "min" : [0]}, {"bufferView" : 2, "byteOffset" : 0, "componentType" : 5126, "count" : 84, "type" : "VEC3", "max" : [3.080400228500366, 1.454272985458374, 2.7817578315734863], "min" : [-1, -1.454272985458374, -1], "name" : "POSITION"}, {"bufferView" : 2, "byteOffset" : 12, "componentType" : 5126, "count" : 84, "type" : "VEC3", "max" : [0.8761773705482483, 1.0000044107437134, 1.0000044107437134], "min" : [-0.8761773705482483, -1.0000044107437134, -1.0000044107437134], "name" : "NORMAL"}, {"bufferView" : 0, "byteOffset" : 336, "componentType" : 5123, "count" : 48, "type" : "SCALAR", "max" : [47], "min" : [0]}, {"bufferView" : 3, "byteOffset" : 0, "componentType" : 5126, "count" : 48, "type" : "VEC3", "max" : [3.080400228500366, 1.454272985458374, 2.7817578315734863], "min" : [1, -1.454272985458374, -1], "name" : "POSITION"}, {"bufferView" : 3, "byteOffset" : 12, "componentType" : 5126, "count" : 48, "type" : "VEC3", "max" : [0.8761799931526184, 0, -0.4819931089878082], "min" : [0.8761764168739319, 0, -0.48199963569641113], "name" : "NORMAL"}, {"bufferView" : 0, "byteOffset" : 432, "componentType" : 5123, "count" : 108, "type" : "SCALAR", "max" : [107], "min" : [0]}, {"bufferView" : 4, "byteOffset" : 0, "componentType" : 5126, "count" : 108, "type" : "VEC3", "max" : [1, 1, 2.089951515197754], "min" : [-1, -1, -1], "name" : "POSITION"}, {"bufferView" : 4, "byteOffset" : 12, "componentType" : 5126, "count" : 108, "type" : "VEC3", "max" : [1.0000044107437134, 1.0000044107437134, 0.9799701571464539], "min" : [-1.0000044107437134, -1.0000044107437134, -1.0000044107437134], "name" : "NORMAL"}, {"bufferView" : 0, "byteOffset" : 648, "componentType" : 5123, "count" : 36, "type" : "SCALAR", "max" : [35], "min" : [0]}, {"bufferView" : 5, "byteOffset" : 0, "componentType" : 5126, "count" : 36, "type" : "VEC3", "max" : [0.2355426698923111, 1, 1], "min" : [-1, -1, -1], "name" : "POSITION"}, {"bufferView" : 5, "byteOffset" : 12, "componentType" : 5126, "count" : 36, "type" : "VEC3", "max" : [1.0000044107437134, 1.0000044107437134, 1.0000044107437134], "min" : [-1.0000044107437134, -1.0000044107437134, -1.0000044107437134], "name" : "NORMAL"}], "asset" : {"generator" : "Aspose.3D 22.3", "version" : "2.0"}, "buffers" : [{"uri" : "data:application/octet-stream;base64,", "byteLength" : 9384}], "bufferViews" : [{"buffer" : 0, "byteOffset" : 0, "byteLength" : 720, "target" : 34963}, {"buffer" : 0, "byteOffset" : 724, "byteLength" : 2016, "byteStride" : 24, "target" : 34962}, {"buffer" : 0, "byteOffset" : 2744, "byteLength" : 2016, "byteStride" : 24, "target" : 34962}, {"buffer" : 0, "byteOffset" : 4764, "byteLength" : 1152, "byteStride" : 24, "target" : 34962}, {"buffer" : 0, "byteOffset" : 5920, "byteLength" : 2592, "byteStride" : 24, "target" : 34962}, {"buffer" : 0, "byteOffset" : 8516, "byteLength" : 864, "byteStride" : 24, "target" : 34962}], "cameras" : [{"perspective" : {"aspectRatio" : 1.777777777777778, "yfov" : 0.8575560450553893, "zfar" : 10000, "znear" : 10.000000149011612}, "type" : "perspective", "name" : "Camera"}], "materials" : [{"name" : "Material.001", "pbrMetallicRoughness" : {"baseColorFactor" : [0.39162278175354004, 0.45447400212287903, 0.4969225525856018, 1], "metallicFactor" : 0, "roughnessFactor" : 0}, "emissiveFactor" : [0.39162278175354004, 0.45447400212287903, 0.4969225525856018], "alphaMode" : "OPAQUE", "doubleSided" : false}, {"name" : "Monitor", "pbrMetallicRoughness" : {"baseColorFactor" : [0.03521784022450447, 0.03521784022450447, 0.03521784022450447, 1], "metallicFactor" : 0, "roughnessFactor" : 0}, "emissiveFactor" : [0.03521784022450447, 0.03521784022450447, 0.03521784022450447], "alphaMode" : "OPAQUE", "doubleSided" : false}, {"name" : "Side", "pbrMetallicRoughness" : {"baseColorFactor" : [0, 0, 0, 1], "metallicFactor" : 0, "roughnessFactor" : 0}, "emissiveFactor" : [0, 0, 0], "alphaMode" : "OPAQUE", "doubleSided" : false}, {"name" : "Stand", "pbrMetallicRoughness" : {"baseColorFactor" : [0.06736554205417633, 0.1449005901813507, 0.15743403136730194, 1], "metallicFactor" : 0, "roughnessFactor" : 0}, "emissiveFactor" : [0.06736554205417633, 0.1449005901813507, 0.15743403136730194], "alphaMode" : "OPAQUE", "doubleSided" : false}, {"name" : "Stand", "pbrMetallicRoughness" : {"baseColorFactor" : [0.06736554205417633, 0.1449005901813507, 0.15743403136730194, 1], "metallicFactor" : 0, "roughnessFactor" : 0}, "emissiveFactor" : [0.06736554205417633, 0.1449005901813507, 0.15743403136730194], "alphaMode" : "OPAQUE", "doubleSided" : false}], "meshes" : [{"primitives" : [{"attributes" : {"POSITION" : 1, "NORMAL" : 2}, "indices" : 0, "material" : 0, "mode" : 4}], "name" : "Plane"}, {"primitives" : [{"attributes" : {"POSITION" : 4, "NORMAL" : 5}, "indices" : 3, "material" : 1, "mode" : 4}, {"attributes" : {"POSITION" : 7, "NORMAL" : 8}, "indices" : 6, "material" : 2, "mode" : 4}], "name" : "Cube.003"}, {"primitives" : [{"attributes" : {"POSITION" : 10, "NORMAL" : 11}, "indices" : 9, "material" : 3, "mode" : 4}], "name" : "Cube.002"}, {"primitives" : [{"attributes" : {"POSITION" : 13, "NORMAL" : 14}, "indices" : 12, "material" : 4, "mode" : 4}], "name" : "Cube.001"}], "nodes" : [{"matrix" : [188.7930145263672, 0, 0, 0, 0, -3.075828623298811E-05, -188.7930145263647, 0, 0, 188.7930145263647, -3.075828623298811E-05, 0, 0, 0, 0, 1], "mesh" : 0, "name" : "Plane"}, {"matrix" : [0.3851842403660123, 0.02429789604643061, 0, 0, 5.452027792740842E-08, -8.642868442585852E-07, -19.811878204345685, 0, -0.4497454790107008, 7.129624324663843, -3.122652327921873E-07, 0, -2.7846388816833496, 12.50295639038086, 0, 1], "mesh" : 1, "name" : "Cube.002"}, {"matrix" : [1.6029143333435059, 0, 0, 0, 0, -2.3905400809237275E-07, -1.4673030376434133, 0, 0, 4.081588745117133, -6.649752122588396E-07, 0, -4.651576995849609, 4.079389572143555, 0, 1], "mesh" : 2, "name" : "Cube.001"}, {"matrix" : [15.584015846252441, 0, 0, 0, 0, -2.6301925480001917E-06, -16.144006729125763, 0, 0, 0.2091971188783618, -3.408253678092797E-08, 0, 0, 0, 0, 1], "mesh" : 3, "name" : "Cube"}, {"camera" : 0, "matrix" : [-99.96316581640447, 0.32252025728102884, 2.6944266118828426, 0, -0.3342289372040105, 97.07193151393872, -24.019302181617963, 0, -2.6929996869521644, -24.019465918801558, -97.03512011401115, 0, 89.66382598876953, 35.833377838134766, -2.9993085861206055, 1], "name" : "Camera"}], "scene" : 0, "scenes" : [{"nodes" : [0, 1, 2, 3, 4]}]}